# Blender v2.82 (sub 7) OBJ File: ''
# www.blender.org
mtllib models/CornellBox.mtl
o CornellBox
v -1.010000 -0.000000 0.990000
v 1.000000 -0.000000 0.990000
v 1.000000 0.000000 -1.040000
v -0.990000 0.000000 -1.040000
v -1.020000 1.990000 0.990000
v -1.020000 1.990000 -1.040000
v 1.000000 1.990000 -1.040000
v 1.000000 1.990000 0.990000
v -0.990000 0.000000 -1.040000
v 1.000000 0.000000 -1.040000
v 1.000000 1.990000 -1.040000
v -1.020000 1.990000 -1.040000
v 1.000000 0.000000 -1.040000
v 1.000000 -0.000000 0.990000
v 1.000000 1.990000 0.990000
v 1.000000 1.990000 -1.040000
v -1.010000 -0.000000 0.990000
v -0.990000 0.000000 -1.040000
v -1.020000 1.990000 -1.040000
v -1.020000 1.990000 0.990000
v 0.530000 0.600000 0.750000
v 0.700000 0.600000 0.170000
v 0.130000 0.600000 0.000000
v -0.050000 0.600000 0.570000
v -0.050000 -0.000000 0.570000
v -0.050000 0.600000 0.570000
v 0.130000 0.600000 0.000000
v 0.130000 0.000000 0.000000
v 0.530000 -0.000000 0.750000
v 0.530000 0.600000 0.750000
v -0.050000 0.600000 0.570000
v -0.050000 -0.000000 0.570000
v 0.700000 -0.000000 0.170000
v 0.700000 0.600000 0.170000
v 0.530000 0.600000 0.750000
v 0.530000 -0.000000 0.750000
v 0.130000 0.000000 0.000000
v 0.130000 0.600000 0.000000
v 0.700000 0.600000 0.170000
v 0.700000 -0.000000 0.170000
v -0.530000 1.200000 0.090000
v 0.040000 1.200000 -0.090000
v -0.140000 1.200000 -0.670000
v -0.710000 1.200000 -0.490000
v -0.530000 -0.000000 0.090000
v -0.530000 1.200000 0.090000
v -0.710000 1.200000 -0.490000
v -0.710000 0.000000 -0.490000
v -0.710000 0.000000 -0.490000
v -0.710000 1.200000 -0.490000
v -0.140000 1.200000 -0.670000
v -0.140000 0.000000 -0.670000
v -0.140000 0.000000 -0.670000
v -0.140000 1.200000 -0.670000
v 0.040000 1.200000 -0.090000
v 0.040000 0.000000 -0.090000
v 0.040000 0.000000 -0.090000
v 0.040000 1.200000 -0.090000
v -0.530000 1.200000 0.090000
v -0.530000 -0.000000 0.090000
v -0.240000 1.980000 0.160000
v -0.240000 1.980000 -0.220000
v 0.230000 1.980000 -0.220000
v 0.230000 1.980000 0.160000
vt 0.669140 0.000290
vt 0.339151 0.336912
vt 0.335835 0.000290
vt 0.669140 0.336912
vt 0.335254 0.336912
vt 0.000290 0.000290
vt 0.335254 0.000290
vt 0.000290 0.336912
vt 0.999710 0.005265
vt 0.669721 0.335254
vt 0.669721 0.000290
vt 0.999710 0.335254
vt 0.337509 0.667482
vt 0.674131 0.337493
vt 0.674131 0.667482
vt 0.337509 0.337493
vt 0.336929 0.667486
vt 0.000307 0.337493
vt 0.336929 0.337493
vt 0.000290 0.667519
vt 0.100502 0.768803
vt 0.001383 0.668591
vt 0.100502 0.668100
vt 0.200782 0.768175
vt 0.299902 0.867669
vt 0.200782 0.867669
vt 0.200782 0.668100
vt 0.301485 0.767594
vt 0.200782 0.767594
vt 0.774936 0.636556
vt 0.674712 0.537062
vt 0.774936 0.537062
vt 0.437003 0.769346
vt 0.337509 0.867980
vt 0.337509 0.769346
vt 0.000290 0.767219
vt 0.299902 0.768175
vt 0.301485 0.668100
vt 0.674712 0.636556
vt 0.437003 0.867980
vt 0.200201 0.668591
vt 0.101082 0.768803
vt 0.101082 0.668100
vt 0.736066 0.668062
vt 0.537078 0.768765
vt 0.537078 0.668062
vt 0.835767 0.867051
vt 0.736647 0.668062
vt 0.835767 0.668062
vt 0.536497 0.668062
vt 0.337509 0.768765
vt 0.337509 0.668062
vt 0.773832 0.536481
vt 0.674712 0.337493
vt 0.773832 0.337493
vt 0.200201 0.769294
vt 0.736066 0.768765
vt 0.736647 0.867051
vt 0.536497 0.768765
vt 0.674712 0.536481
vt 0.837426 0.337493
vt 0.774413 0.415430
vt 0.774413 0.337493
vt 0.837426 0.415430
vn 0.0000 1.0000 0.0000
vn 0.0000 -1.0000 -0.0000
vn 0.0000 -0.0000 1.0000
vn -1.0000 0.0000 0.0000
vn 1.0000 0.0050 0.0000
vn 0.9998 0.0151 0.0099
vn -0.9536 0.0000 -0.3011
vn -0.2964 -0.0000 0.9551
vn 0.9596 -0.0000 0.2813
vn 0.2858 0.0000 -0.9583
vn -0.9551 0.0000 0.2964
vn -0.3011 0.0000 -0.9536
vn 0.9551 0.0000 -0.2964
vn 0.3011 -0.0000 0.9536
g CornellBox_CornellBox_floor
usemtl floor
s off
f 2/1/1 4/2/1 1/3/1
f 2/1/1 3/4/1 4/2/1
g CornellBox_CornellBox_ceiling
usemtl ceiling
f 6/5/2 8/6/2 5/7/2
f 6/5/2 7/8/2 8/6/2
g CornellBox_CornellBox_backWall
usemtl backWall
f 9/9/3 11/10/3 12/11/3
f 9/9/3 10/12/3 11/10/3
g CornellBox_CornellBox_rightWall
usemtl rightWall
f 14/13/4 16/14/4 13/15/4
f 14/13/4 15/16/4 16/14/4
g CornellBox_CornellBox_leftWall
usemtl leftWall
f 17/17/5 19/18/5 20/19/5
f 17/17/6 18/20/6 19/18/6
g CornellBox_CornellBox_shortBox
usemtl shortBox
f 21/21/1 23/22/1 24/23/1
f 26/24/7 28/25/7 25/26/7
f 30/27/8 32/28/8 29/29/8
f 34/30/9 36/31/9 33/32/9
f 38/33/10 40/34/10 37/35/10
f 21/21/1 22/36/1 23/22/1
f 26/24/7 27/37/7 28/25/7
f 30/27/8 31/38/8 32/28/8
f 34/30/9 35/39/9 36/31/9
f 38/33/10 39/40/10 40/34/10
g CornellBox_CornellBox_tallBox
usemtl tallBox
f 42/41/1 44/42/1 41/43/1
f 46/44/11 48/45/11 45/46/11
f 50/47/12 52/48/12 49/49/12
f 54/50/13 56/51/13 53/52/13
f 58/53/14 60/54/14 57/55/14
f 42/41/1 43/56/1 44/42/1
f 46/44/11 47/57/11 48/45/11
f 50/47/12 51/58/12 52/48/12
f 54/50/13 55/59/13 56/51/13
f 58/53/14 59/60/14 60/54/14
g CornellBox_CornellBox_light
usemtl light
f 62/61/2 64/62/2 61/63/2
f 62/61/2 63/64/2 64/62/2
