# Blender v2.82 (sub 7) OBJ File: 'cornell_box.blend'
# www.blender.org
mtllib models/cornell_box.mtl
o Light
v -213.000000 547.799988 -227.000015
v -213.000000 547.799988 -332.000000
v -343.000000 547.799988 -227.000000
v -343.000000 547.799988 -332.000000
vt 0.000090 0.807637
vt 0.999910 0.000090
vt 0.999910 0.807637
vt 0.000090 0.000090
vn 0.0000 -1.0000 0.0000
g Light_Light_Emitter
usemtl Emitter
s off
f 3/1/1 2/2/1 1/3/1
f 3/1/1 4/4/1 2/2/1
o large_box
v -422.352661 0.000046 -247.760956
v -422.352661 330.000061 -247.761017
v -471.239044 330.000000 -405.352661
v -471.239044 0.000015 -405.352600
v -264.761017 0.000046 -296.647339
v -264.761017 330.000061 -296.647400
v -313.647400 330.000000 -454.239044
v -313.647400 0.000015 -454.238983
vt 0.000000 0.000000
vt 1.000000 0.000000
vt 1.000000 1.000000
vt 0.000000 0.000000
vt 1.000000 0.000000
vt 1.000000 1.000000
vt 0.000000 0.000000
vt 1.000000 0.000000
vt 1.000000 1.000000
vt 0.000000 0.000000
vt 1.000000 0.000000
vt 1.000000 1.000000
vt 0.000000 0.000000
vt 1.000000 1.000000
vt 1.000000 0.000000
vt 1.000000 1.000000
vt 1.000000 1.000000
vt 1.000000 1.000000
vt 1.000000 0.000000
vn 0.2963 0.0000 0.9551
vn -0.0000 1.0000 -0.0000
vn -0.2963 -0.0000 -0.9551
vn 0.0000 -1.0000 0.0000
vn -0.9551 0.0000 0.2963
vn 0.9551 0.0000 -0.2963
g large_box_large_box_box_Material
usemtl box_Material
s off
f 10/5/2 5/6/2 9/7/2
f 11/8/3 6/9/3 10/10/3
f 12/11/4 7/12/4 11/13/4
f 9/14/5 8/15/5 12/16/5
f 6/17/6 8/15/6 5/18/6
f 11/8/7 9/19/7 12/16/7
f 10/5/2 6/9/2 5/18/2
f 11/8/3 7/12/3 6/20/3
f 12/11/4 8/15/4 7/21/4
f 9/14/5 5/6/5 8/22/5
f 6/17/6 7/12/6 8/22/6
f 11/8/7 10/23/7 9/7/7
o small_box
v -129.536377 0.000000 -66.353592
v -129.536377 165.000015 -66.353577
v -287.646423 165.000015 -113.536346
v -287.646423 0.000000 -113.536362
v -82.353600 0.000015 -224.463654
v -82.353600 165.000031 -224.463638
v -240.463654 165.000031 -271.646423
v -240.463654 0.000015 -271.646423
vt 0.000000 0.000000
vt 1.000000 0.000000
vt 1.000000 1.000000
vt 0.000000 0.000000
vt 1.000000 0.000000
vt 1.000000 1.000000
vt 0.000000 0.000000
vt 1.000000 0.000000
vt 1.000000 1.000000
vt 0.000000 0.000000
vt 1.000000 0.000000
vt 1.000000 1.000000
vt 0.000000 0.000000
vt 1.000000 1.000000
vt 1.000000 0.000000
vt 1.000000 1.000000
vt 1.000000 1.000000
vt 1.000000 1.000000
vt 1.000000 0.000000
vn 0.9582 0.0000 0.2860
vn -0.0000 1.0000 -0.0000
vn -0.9582 0.0000 -0.2860
vn 0.0000 -1.0000 -0.0000
vn -0.2860 -0.0000 0.9582
vn 0.2860 0.0000 -0.9582
g small_box_small_box_box_Material
usemtl box_Material
s off
f 18/24/8 13/25/8 17/26/8
f 19/27/9 14/28/9 18/29/9
f 20/30/10 15/31/10 19/32/10
f 17/33/11 16/34/11 20/35/11
f 14/36/12 16/34/12 13/37/12
f 19/27/13 17/38/13 20/35/13
f 18/24/8 14/28/8 13/37/8
f 19/27/9 15/31/9 14/39/9
f 20/30/10 16/34/10 15/40/10
f 17/33/11 13/25/11 16/41/11
f 14/36/12 15/31/12 16/41/12
f 19/27/13 18/42/13 17/26/13
o cornell_box
v -549.600037 0.000042 -559.199951
v -552.799988 0.000000 0.000083
v -0.000084 0.000042 -559.200012
v 0.000000 0.000000 0.000000
v 0.000000 548.799988 0.000041
v -0.000084 548.800049 -559.199951
v -556.000061 548.800049 -559.199890
v -556.000000 548.799988 0.000125
vt 0.540293 0.457768
vt 0.999901 0.942222
vt 0.578772 0.505401
vt 0.532167 0.540331
vt 0.000099 0.000099
vt 0.490448 0.509598
vt 0.999901 0.034545
vt 0.080940 0.971844
vn 0.0000 1.0000 0.0000
vn -0.0000 -1.0000 0.0000
vn 0.0000 -0.0000 1.0000
vn 0.9999 0.0117 0.0057
vn 1.0000 0.0058 -0.0000
vn -1.0000 0.0000 0.0000
g cornell_box_cornell_box_cbox_Material
usemtl cbox_Material
s off
f 21/43/14 24/44/14 23/45/14
f 26/46/15 28/47/15 27/48/15
f 26/46/16 21/43/16 23/45/16
f 21/43/14 22/49/14 24/44/14
f 26/46/15 25/50/15 28/47/15
f 26/46/16 27/48/16 21/43/16
g cornell_box_cornell_box_cbox_red
usemtl cbox_red
f 27/48/17 22/49/17 21/43/17
f 27/48/18 28/47/18 22/49/18
g cornell_box_cornell_box_cbox_green
usemtl cbox_green
f 25/50/19 23/45/19 24/44/19
f 25/50/19 26/46/19 23/45/19
